# MiniPy3DR sample unit sphere
# Low-poly UV sphere, radius 1, centered at origin.

v 0.000000 1.000000 0.000000
v 0.500000 0.866025 0.000000
v 0.353553 0.866025 0.353553
v 0.000000 0.866025 0.500000
v -0.353553 0.866025 0.353553
v -0.500000 0.866025 0.000000
v -0.353553 0.866025 -0.353553
v -0.000000 0.866025 -0.500000
v 0.353553 0.866025 -0.353553
v 0.866025 0.500000 0.000000
v 0.612372 0.500000 0.612372
v 0.000000 0.500000 0.866025
v -0.612372 0.500000 0.612372
v -0.866025 0.500000 0.000000
v -0.612372 0.500000 -0.612372
v -0.000000 0.500000 -0.866025
v 0.612372 0.500000 -0.612372
v 1.000000 0.000000 0.000000
v 0.707107 0.000000 0.707107
v 0.000000 0.000000 1.000000
v -0.707107 0.000000 0.707107
v -1.000000 0.000000 0.000000
v -0.707107 0.000000 -0.707107
v -0.000000 0.000000 -1.000000
v 0.707107 0.000000 -0.707107
v 0.866025 -0.500000 0.000000
v 0.612372 -0.500000 0.612372
v 0.000000 -0.500000 0.866025
v -0.612372 -0.500000 0.612372
v -0.866025 -0.500000 0.000000
v -0.612372 -0.500000 -0.612372
v -0.000000 -0.500000 -0.866025
v 0.612372 -0.500000 -0.612372
v 0.500000 -0.866025 0.000000
v 0.353553 -0.866025 0.353553
v 0.000000 -0.866025 0.500000
v -0.353553 -0.866025 0.353553
v -0.500000 -0.866025 0.000000
v -0.353553 -0.866025 -0.353553
v -0.000000 -0.866025 -0.500000
v 0.353553 -0.866025 -0.353553
v 0.000000 -1.000000 0.000000

f 1 3 2
f 1 4 3
f 1 5 4
f 1 6 5
f 1 7 6
f 1 8 7
f 1 9 8
f 1 2 9
f 2 3 11
f 2 11 10
f 3 4 12
f 3 12 11
f 4 5 13
f 4 13 12
f 5 6 14
f 5 14 13
f 6 7 15
f 6 15 14
f 7 8 16
f 7 16 15
f 8 9 17
f 8 17 16
f 9 2 10
f 9 10 17
f 10 11 19
f 10 19 18
f 11 12 20
f 11 20 19
f 12 13 21
f 12 21 20
f 13 14 22
f 13 22 21
f 14 15 23
f 14 23 22
f 15 16 24
f 15 24 23
f 16 17 25
f 16 25 24
f 17 10 18
f 17 18 25
f 18 19 27
f 18 27 26
f 19 20 28
f 19 28 27
f 20 21 29
f 20 29 28
f 21 22 30
f 21 30 29
f 22 23 31
f 22 31 30
f 23 24 32
f 23 32 31
f 24 25 33
f 24 33 32
f 25 18 26
f 25 26 33
f 26 27 35
f 26 35 34
f 27 28 36
f 27 36 35
f 28 29 37
f 28 37 36
f 29 30 38
f 29 38 37
f 30 31 39
f 30 39 38
f 31 32 40
f 31 40 39
f 32 33 41
f 32 41 40
f 33 26 34
f 33 34 41
f 34 35 42
f 35 36 42
f 36 37 42
f 37 38 42
f 38 39 42
f 39 40 42
f 40 41 42
f 41 34 42
